<!DOCTYPE svg PUBLIC "-//W3C//DTD SVG 1.1//EN" "http://www.w3.org/Graphics/SVG/1.1/DTD/svg11.dtd">
<!-- Uploaded to: SVG Repo, www.svgrepo.com, Transformed by: SVG Repo Mixer Tools -->
<svg fill="#ffffff" width="800px" height="800px" viewBox="0 0 24 24" xmlns="http://www.w3.org/2000/svg" stroke="#ffffff">
<g id="SVGRepo_bgCarrier" stroke-width="0"/>
<g id="SVGRepo_tracerCarrier" stroke-linecap="round" stroke-linejoin="round"/>
<g id="SVGRepo_iconCarrier">
<path d="M12,23A11,11,0,1,0,1,12,11.013,11.013,0,0,0,12,23Zm9-11A9,9,0,0,1,3.144,13.554,8.972,8.972,0,0,0,17,6a8.842,8.842,0,0,0-.153-1.571A8.991,8.991,0,0,1,21,12ZM12,3a10.453,10.453,0,0,1,2.473.354A6.879,6.879,0,0,1,15,6,6.991,6.991,0,0,1,3.071,10.958,9.023,9.023,0,0,1,12,3Z"/>
</g>
</svg>